<?xml version="1.0" encoding="iso-8859-1"?>
<!-- Generator: Adobe Illustrator 19.0.0, SVG Export Plug-In . SVG Version: 6.00 Build 0)  -->
<svg version="1.1" id="Capa_1" xmlns="http://www.w3.org/2000/svg" xmlns:xlink="http://www.w3.org/1999/xlink" x="0px" y="0px"
	 viewBox="0 0 496 496" style="enable-background:new 0 0 496 496;" xml:space="preserve">
<g>
	<g>
		<path d="M492.112,378.152L429.904,176H400.84l-1.6-16H352v-32h80V0H224v128h80v32h-47.24l-1.6,16H208V67.056l-24,12l-16-8l-16,8
			l-16-8l-16,8l-24-12V176H66.096L3.888,378.152C1.312,386.552,0,395.256,0,404.032V464c0,17.648,14.352,32,32,32h432
			c17.648,0,32-14.352,32-32v-59.968C496,395.256,494.688,386.552,492.112,378.152z M240,112V16h176v96H240z M336,128v32h-16v-32
			H336z M271.24,176h113.512l6.4,64H264.84L271.24,176z M112,92.944l8,4l16-8l16,8l16-8l16,8l8-4V232h-80V92.944z M480,464
			c0,8.824-7.176,16-16,16H32c-8.824,0-16-7.176-16-16v-59.968c0-7.176,1.072-14.304,3.184-21.176L77.904,192H96v40H80v16h144v-16
			h-16v-40h45.56l-6.4,64h161.688l-6.4-64h15.648l58.72,190.856c2.112,6.872,3.184,14,3.184,21.176V464z"/>
	</g>
</g>
<g>
	<g>
		<rect x="40" y="384" width="416" height="16"/>
	</g>
</g>
<g>
	<g>
		<rect x="192" y="432" width="112" height="16"/>
	</g>
</g>
<g>
	<g>
		<path d="M406.552,272H280v96h145.76L406.552,272z M376,288h17.448l4.8,24H376V288z M320,352h-24v-24h24V352z M320,312h-24v-24h24
			V312z M360,352h-24v-24h24V352z M360,312h-24v-24h24V312z M376,352v-24h25.44l4.8,24H376z"/>
	</g>
</g>
<g>
	<g>
		<path d="M89.448,272l-19.2,96H216v-96H89.448z M120,352H89.76l4.8-24H120V352z M120,312H97.752l4.8-24H120V312z M160,352h-24v-24
			h24V352z M160,312h-24v-24h24V312z M200,352h-24v-24h24V352z M200,312h-24v-24h24V312z"/>
	</g>
</g>
<g>
	<g>
		<rect x="128" y="112" width="48" height="16"/>
	</g>
</g>
<g>
	<g>
		<rect x="128" y="144" width="48" height="16"/>
	</g>
</g>
<g>
	<g>
		<rect x="128" y="176" width="48" height="16"/>
	</g>
</g>
<g>
	<g>
		<path d="M256,32v64h144V32H256z M384,80H272V48h112V80z"/>
	</g>
</g>
<g>
	<g>
		<rect x="288" y="200" width="16" height="16"/>
	</g>
</g>
<g>
	<g>
		<rect x="352" y="200" width="16" height="16"/>
	</g>
</g>
<g>
	<g>
		<rect x="240" y="352" width="16" height="16"/>
	</g>
</g>
<g>
	<g>
		<rect x="240" y="312" width="16" height="16"/>
	</g>
</g>
<g>
	<g>
		<rect x="240" y="272" width="16" height="16"/>
	</g>
</g>
<g>
</g>
<g>
</g>
<g>
</g>
<g>
</g>
<g>
</g>
<g>
</g>
<g>
</g>
<g>
</g>
<g>
</g>
<g>
</g>
<g>
</g>
<g>
</g>
<g>
</g>
<g>
</g>
<g>
</g>
</svg>
